# xmcd
#
# Track frame offsets:
# 150
# 16890
# 34204
# 60441
# 89335
# 113006
# 142133
# 163404
# 196210
# 218401
# 235609
# 251716
# 268251
# 284474
# 298599
#
# Disc length: 4171 seconds
#
#
# Revision: 0
# Processed by: cddbd v1.5.1PL2 Copyright (c) Steve Scherf et al.
# Submitted via: FreeRIP 2.944 
#
DISCID=de10490f
DTITLE=Various Artist - latino anno 2000
DYEAR=2000
DGENRE=latin
TTITLE0=papa makoma - rumba d'africa
TTITLE1=nosotros - contigo
TTITLE2=a.k.a. - warning
TTITLE3=jenny j. - if you had my love
TTITLE4=e desio - la fiesta de la cintura
TTITLE5=d.d. klein - tonga
TTITLE6=lou bega - mambo n. 5
TTITLE7=kimara love lace - i luv u more
TTITLE8=lia de baia - amore
TTITLE9=jennifer lopez - baila
TTITLE10=gary barlow - stringer
TTITLE11=basament jaxx - renoez vu
TTITLE12=ricky martin - love u for a day
TTITLE13=geri halliwell - michico latino
TTITLE14=alliance ethnik - no limites
EXTD=
EXTT0=
EXTT1=
EXTT2=
EXTT3=
EXTT4=
EXTT5=
EXTT6=
EXTT7=
EXTT8=
EXTT9=
EXTT10=
EXTT11=
EXTT12=
EXTT13=
EXTT14=
PLAYORDER=
